<?xml version="1.0" encoding="iso-8859-1"?>
<!-- Generator: Adobe Illustrator 19.0.0, SVG Export Plug-In . SVG Version: 6.00 Build 0)  -->
<svg version="1.1" id="Capa_1" xmlns="http://www.w3.org/2000/svg" xmlns:xlink="http://www.w3.org/1999/xlink" x="0px" y="0px"
	 viewBox="0 0 512 512" style="enable-background:new 0 0 512 512;" xml:space="preserve">
<g>
	<g>
		<path d="M256,0C114.842,0,0,114.842,0,256s114.842,256,256,256s256-114.842,256-256S397.158,0,256,0z M232.727,116.364
			c0-12.853,10.42-23.273,23.273-23.273c12.853,0,23.273,10.42,23.273,23.273v99.739c0,12.853-10.42,23.273-23.273,23.273
			c-12.853,0-23.273-10.42-23.273-23.273V116.364z M256,418.909c-81.579,0-147.948-66.369-147.948-147.948
			c0-36.346,13.309-71.297,37.474-98.413c8.552-9.598,23.262-10.44,32.859-1.89c9.596,8.552,10.44,23.262,1.89,32.86
			c-16.558,18.579-25.678,42.53-25.678,67.443c0,55.913,45.489,101.402,101.402,101.402s101.402-45.489,101.402-101.402
			c0-24.916-9.118-48.867-25.676-67.443c-8.554-9.595-7.708-24.306,1.888-32.858c9.593-8.552,24.306-7.709,32.858,1.888
			c24.166,27.113,37.475,62.062,37.475,98.413C403.948,352.54,337.579,418.909,256,418.909z"/>
	</g>
</g>
<g>
</g>
<g>
</g>
<g>
</g>
<g>
</g>
<g>
</g>
<g>
</g>
<g>
</g>
<g>
</g>
<g>
</g>
<g>
</g>
<g>
</g>
<g>
</g>
<g>
</g>
<g>
</g>
<g>
</g>
</svg>
