<?xml version="1.0" encoding="iso-8859-1"?>
<!-- Generator: Adobe Illustrator 19.0.0, SVG Export Plug-In . SVG Version: 6.00 Build 0)  -->
<svg version="1.1" id="Capa_1" xmlns="http://www.w3.org/2000/svg" xmlns:xlink="http://www.w3.org/1999/xlink" x="0px" y="0px"
	 viewBox="0 0 512 512" style="enable-background:new 0 0 512 512;" xml:space="preserve">
<g>
	<g>
		<path d="M256,0C114.844,0,0,114.844,0,256s114.844,256,256,256s256-114.844,256-256S397.156,0,256,0z M359.54,329.374
			c4.167,4.165,4.167,10.919,0,15.085L344.46,359.54c-4.167,4.165-10.919,4.165-15.086,0L256,286.167l-73.374,73.374
			c-4.167,4.165-10.919,4.165-15.086,0l-15.081-15.082c-4.167-4.165-4.167-10.919,0-15.085l73.374-73.375l-73.374-73.374
			c-4.167-4.165-4.167-10.919,0-15.085l15.081-15.082c4.167-4.165,10.919-4.165,15.086,0L256,225.832l73.374-73.374
			c4.167-4.165,10.919-4.165,15.086,0l15.081,15.082c4.167,4.165,4.167,10.919,0,15.085l-73.374,73.374L359.54,329.374z"/>
	</g>
</g>
<g>
</g>
<g>
</g>
<g>
</g>
<g>
</g>
<g>
</g>
<g>
</g>
<g>
</g>
<g>
</g>
<g>
</g>
<g>
</g>
<g>
</g>
<g>
</g>
<g>
</g>
<g>
</g>
<g>
</g>
</svg>
