<?xml version="1.0" encoding="iso-8859-1"?>
<!-- Generator: Adobe Illustrator 19.0.0, SVG Export Plug-In . SVG Version: 6.00 Build 0)  -->
<svg version="1.1" id="Capa_1" xmlns="http://www.w3.org/2000/svg" xmlns:xlink="http://www.w3.org/1999/xlink" x="0px" y="0px"
	 viewBox="0 0 512 512" style="enable-background:new 0 0 512 512;" xml:space="preserve">
<g>
	<g>
		<path d="M256,0C114.844,0,0,114.844,0,256s114.844,256,256,256s256-114.844,256-256S397.156,0,256,0z M359.542,306.208l-96,96
			c-4.167,4.167-10.917,4.167-15.083,0l-96-96c-2.042-2.042-3.125-4.771-3.125-7.542c0-1.375,0.26-2.76,0.813-4.083
			c1.646-3.99,5.542-6.583,9.854-6.583h21.333c2.833,0,5.542,1.125,7.542,3.125l45.792,45.792V117.333
			c0-5.896,4.771-10.667,10.667-10.667h21.333c5.896,0,10.667,4.771,10.667,10.667v219.583l45.792-45.792
			c2-2,4.708-3.125,7.542-3.125H352c4.313,0,8.208,2.594,9.854,6.583C363.521,298.583,362.594,303.156,359.542,306.208z"/>
	</g>
</g>
<g>
</g>
<g>
</g>
<g>
</g>
<g>
</g>
<g>
</g>
<g>
</g>
<g>
</g>
<g>
</g>
<g>
</g>
<g>
</g>
<g>
</g>
<g>
</g>
<g>
</g>
<g>
</g>
<g>
</g>
</svg>
