<svg id="Layer_5" enable-background="new 0 0 64 64" height="512" viewBox="0 0 64 64" width="512" xmlns="http://www.w3.org/2000/svg"><g><path d="m26.448 50.117 1.219 5.317 2.721-1.633-3.725-3.723z"/><path d="m37 31h-10c-1.103 0-2 .897-2 2s.897 2 2 2v-2h10v2c1.103 0 2-.897 2-2s-.897-2-2-2z"/><path d="m29 38c0 1.302.839 2.402 2 2.816v-1.816h2v1.816c1.161-.414 2-1.514 2-2.816v-3h-6z"/><path d="m44.558 51.396-5.038-.916-1.853 8.086-5.667-3.4-5.667 3.4-1.854-8.092-5.048.918c-1.859.338-3.534 1.337-4.714 2.813-1.108 1.384-1.717 3.122-1.717 4.893v1.902h6v-6h2v6h22v-6h2v6h6v-1.883c0-1.782-.616-3.528-1.734-4.916-1.193-1.478-2.86-2.469-4.708-2.805z"/><path d="m28.721 47-.577 1.73 3.856 3.856 3.832-3.832-.584-1.754z"/><path d="m37.55 50.122-.218-.04-3.72 3.719 2.721 1.633z"/><path d="m3 44c0 .551.448 1 1 1h56c.552 0 1-.449 1-1v-29h-58zm34-7v1c0 2.757-2.243 5-5 5s-5-2.243-5-5v-1c-2.206 0-4-1.794-4-4s1.794-4 4-4h10c2.206 0 4 1.794 4 4s-1.794 4-4 4zm-.707-19.293 1.414-1.414 3.293 3.293 3.293-3.293 1.414 1.414-3.293 3.293 3.293 3.293-1.414 1.414-3.293-3.293-3.293 3.293-1.414-1.414 3.293-3.293zm-18 0 1.414-1.414 3.293 3.293 3.293-3.293 1.414 1.414-3.293 3.293 3.293 3.293-1.414 1.414-3.293-3.293-3.293 3.293-1.414-1.414 3.293-3.293z"/><path d="m60 3h-56c-.552 0-1 .449-1 1v9h58v-9c0-.551-.448-1-1-1zm-53 7c-.552 0-1-.448-1-1v-2c0-.552.448-1 1-1h2v4zm4 0v-4h2v4zm7-1c0 .552-.448 1-1 1h-2v-4h2c.552 0 1 .448 1 1zm40 1h-20v-4h20z"/></g></svg>