<svg height="512" viewBox="0 0 64 64" width="512" xmlns="http://www.w3.org/2000/svg"><g id="Layer_7" data-name="Layer 7"><path d="m7 39v2.59l2.59-2.59z"/><path d="m11 43v-2.59l-2.59 2.59z"/><path d="m7 29v2.59l2.59-2.59z"/><path d="m11 33v-2.59l-2.59 2.59z"/><path d="m42 7h-34v14h34zm-26 4h-2v8h-2v-8h-2v-2h6zm8 0h-4v2h4v2h-4v2h4v2h-5a1 1 0 0 1 -1-1v-8a1 1 0 0 1 1-1h5zm8 0h-3a1 1 0 0 0 0 2 3 3 0 0 1 0 6h-3v-2h3a1 1 0 0 0 0-2 3 3 0 0 1 0-6h3zm8 0h-2v8h-2v-8h-2v-2h6z"/><path d="m7 49h4v4h-4z"/><path d="m32.86 33.17h26.28v3.66h-26.28z" transform="matrix(.707 -.707 .707 .707 -11.28 42.78)"/><path d="m36.25 46.66-1.91-1.91-1.44 3.35z"/><path d="m56.17 21.17h3.66v3.66h-3.66z" transform="matrix(.707 -.707 .707 .707 .72 47.75)"/><path d="m38.39 47.92-7 3a1 1 0 0 1 -.39.08 1 1 0 0 1 -.92-1.39l2.4-5.61h-17.48v-2h18.59l2-2h-20.59v-2h22.59l4-4h-26.59v-2h28.59l3.41-3.41v-25.59h-44v58h44v-21.59l-8.29 8.3a1.11 1.11 0 0 1 -.32.21zm-10.39.08v2h-13v-2zm16-18h-29v-2h29zm-38-24a1 1 0 0 1 1-1h36a1 1 0 0 1 1 1v16a1 1 0 0 1 -1 1h-36a1 1 0 0 1 -1-1zm-1 22a1 1 0 0 1 1-1h5.59l2.7-2.71 1.42 1.42-2.71 2.7v5.59a1 1 0 0 1 -1 1h-6a1 1 0 0 1 -1-1zm8 26a1 1 0 0 1 -1 1h-6a1 1 0 0 1 -1-1v-6a1 1 0 0 1 1-1h6a1 1 0 0 1 1 1zm0-15.59v5.59a1 1 0 0 1 -1 1h-6a1 1 0 0 1 -1-1v-6a1 1 0 0 1 1-1h5.59l1.7-1.71 1.42 1.42zm31 15.59h-29v-2h29z"/></g></svg>