<svg id="Capa_1" enable-background="new 0 0 512 512" height="512" viewBox="0 0 512 512" width="512" xmlns="http://www.w3.org/2000/svg"><path d="m142.468 383.467h34.266v34.267h-34.266z"/><path d="m360.434 128.533h94.578l-119.746-119.746v94.579c0 13.877 11.291 25.167 25.168 25.167z"/><path d="m142.468 254.933h34.266v34.268h-34.266z"/><path d="m360.434 158.533c-30.42 0-55.168-24.748-55.168-55.167v-103.366h-201.9c-30.417 0-55.166 24.747-55.166 55.166v401.667c0 30.419 24.749 55.167 55.166 55.167h305.267c30.42 0 55.166-24.748 55.166-55.167v-298.3zm-40.168 66.4c8.285 0 15 6.716 15 15s-6.715 15-15 15h-64.265c-8.285 0-15-6.716-15-15s6.715-15 15-15zm-192.798-144.6h80.332c8.285 0 15 6.716 15 15s-6.715 15-15 15h-80.332c-8.285 0-15-6.716-15-15s6.715-15 15-15zm0 64.267h128.533c8.283 0 15 6.716 15 15s-6.717 15-15 15h-128.533c-8.285 0-15-6.716-15-15s6.715-15 15-15zm79.266 288.133c0 8.284-6.715 15-15 15h-64.266c-8.285 0-15-6.716-15-15v-64.267c0-8.284 6.715-15 15-15h64.266c8.285 0 15 6.716 15 15zm0-128.533c0 8.284-6.715 15-15 15h-64.266c-8.285 0-15-6.716-15-15v-64.268c0-8.284 6.715-15 15-15h64.266c8.285 0 15 6.716 15 15zm177.8 143.533h-128.533c-8.285 0-15-6.716-15-15s6.715-15 15-15h128.533c8.283 0 15 6.716 15 15s-6.717 15-15 15zm-143.533-79.266c0-8.284 6.715-15 15-15h64.265c8.285 0 15 6.716 15 15s-6.715 15-15 15h-64.265c-8.285 0-15-6.716-15-15zm143.533-49.267h-128.533c-8.285 0-15-6.716-15-15s6.715-15 15-15h128.533c8.283 0 15 6.716 15 15s-6.717 15-15 15z"/></svg>