<svg xmlns="http://www.w3.org/2000/svg" height="512pt" version="1.1" viewBox="0 0 512.00018 512" width="512pt">
<g id="surface1">
<path d="M 199.960938 447.894531 C 218.664062 483.355469 244.503906 506.789062 245.996094 508.125 C 248.84375 510.675781 252.421875 511.949219 256 511.949219 C 259.578125 511.949219 263.160156 510.675781 266.007812 508.125 C 267.5 506.789062 293.332031 483.355469 312.035156 447.894531 C 290.023438 439.136719 270.996094 427.121094 256 415.742188 C 241 427.121094 221.976562 439.136719 199.960938 447.894531 Z M 199.960938 447.894531 " style=" stroke:none;fill-rule:nonzero;fill-opacity:1;" />
<path d="M 477.039062 317.992188 C 474.25 321.152344 471.382812 324.226562 468.429688 327.179688 C 438.957031 356.648438 399.84375 377.722656 352.167969 389.816406 C 326.847656 396.238281 303.386719 398.96875 285.710938 400.066406 C 309.152344 415.730469 340.945312 430.808594 376.488281 430.808594 C 448.902344 430.808594 505.765625 368.230469 508.152344 365.566406 C 513.25 359.871094 513.25 351.253906 508.152344 345.558594 C 507.371094 344.6875 495.855469 331.96875 477.039062 317.992188 Z M 477.039062 317.992188 " style=" stroke:none;fill-rule:nonzero;fill-opacity:1;" />
<path d="M 159.835938 389.820312 C 112.160156 377.726562 73.042969 356.652344 43.570312 327.179688 C 40.613281 324.226562 37.75 321.15625 34.957031 317.992188 C 16.144531 331.96875 4.628906 344.691406 3.847656 345.558594 C -1.25 351.253906 -1.25 359.875 3.847656 365.570312 C 6.234375 368.234375 63.097656 430.808594 135.507812 430.808594 C 171.054688 430.808594 202.84375 415.730469 226.289062 400.066406 C 208.613281 398.96875 185.152344 396.238281 159.835938 389.820312 Z M 159.835938 389.820312 " style=" stroke:none;fill-rule:nonzero;fill-opacity:1;" />
<path d="M 245.996094 366.738281 C 248.84375 369.289062 252.421875 370.566406 256 370.566406 C 259.578125 370.566406 263.15625 369.289062 266.007812 366.738281 C 269.6875 363.445312 356.140625 284.886719 356.140625 185.28125 C 356.140625 85.679688 269.6875 7.121094 266.007812 3.824219 C 263.160156 1.273438 259.578125 0 256 0 C 252.421875 0 248.84375 1.273438 245.996094 3.824219 C 242.3125 7.121094 155.859375 85.679688 155.859375 185.28125 C 155.859375 284.882812 242.316406 363.445312 245.996094 366.738281 Z M 245.996094 366.738281 " style=" stroke:none;fill-rule:nonzero;fill-opacity:1;" />
<path d="M 415.445312 77.117188 C 408.171875 51.933594 400.34375 35.453125 399.847656 34.429688 C 396.539062 27.535156 388.574219 24.238281 381.359375 26.769531 C 380.289062 27.148438 363.105469 33.257812 340.160156 45.921875 C 350.089844 61.015625 358.503906 76.375 365.292969 91.785156 C 382.4375 85.128906 399.492188 80.417969 415.445312 77.117188 Z M 415.445312 77.117188 " style=" stroke:none;fill-rule:nonzero;fill-opacity:1;" />
<path d="M 171.839844 45.921875 C 148.898438 33.257812 131.714844 27.148438 130.640625 26.769531 C 123.425781 24.234375 115.460938 27.535156 112.152344 34.425781 C 111.660156 35.453125 103.828125 51.933594 96.554688 77.117188 C 112.503906 80.414062 129.5625 85.125 146.707031 91.78125 C 153.496094 76.378906 161.910156 61.015625 171.839844 45.921875 Z M 171.839844 45.921875 " style=" stroke:none;fill-rule:nonzero;fill-opacity:1;" />
<path d="M 386.136719 185.28125 C 386.136719 211.707031 380.914062 238.824219 370.605469 265.871094 C 362.53125 287.066406 351.316406 308.296875 337.269531 328.980469 C 326.558594 344.753906 315.722656 357.945312 306.769531 367.9375 C 348.070312 362.597656 405.683594 347.5 447.21875 305.96875 C 517.648438 235.539062 512.066406 118.855469 511.792969 113.921875 C 511.371094 106.289062 505.277344 100.195312 497.644531 99.773438 C 496.96875 99.738281 493.664062 99.570312 488.296875 99.570312 C 468.867188 99.570312 422.417969 101.726562 375.851562 119.859375 C 382.683594 141.851562 386.136719 163.792969 386.136719 185.28125 Z M 386.136719 185.28125 " style=" stroke:none;fill-rule:nonzero;fill-opacity:1;" />
<path d="M 205.234375 367.941406 C 196.28125 357.945312 185.445312 344.753906 174.734375 328.980469 C 160.6875 308.296875 149.46875 287.066406 141.394531 265.871094 C 131.089844 238.824219 125.863281 211.707031 125.863281 185.28125 C 125.863281 163.792969 129.316406 141.851562 136.152344 119.859375 C 89.585938 101.726562 43.140625 99.570312 23.710938 99.570312 C 18.335938 99.570312 15.03125 99.734375 14.355469 99.773438 C 6.722656 100.195312 0.628906 106.289062 0.207031 113.921875 C -0.0664062 118.855469 -5.648438 235.539062 64.78125 305.96875 C 106.320312 347.503906 163.933594 362.597656 205.234375 367.941406 Z M 205.234375 367.941406 " style=" stroke:none;fill-rule:nonzero;fill-opacity:1;" />
</g>
</svg>