<svg id="Capa_1" enable-background="new 0 0 512 512" height="512" viewBox="0 0 512 512" width="512" xmlns="http://www.w3.org/2000/svg"><path d="m357 312c-55.14 0-100 44.86-100 100s44.86 100 100 100 100-44.86 100-100-44.86-100-100-100zm40 115h-25v25c0 8.284-6.716 15-15 15s-15-6.716-15-15v-25h-25c-8.284 0-15-6.716-15-15s6.716-15 15-15h25v-25c0-8.284 6.716-15 15-15s15 6.716 15 15v25h25c8.284 0 15 6.716 15 15s-6.716 15-15 15z"/><path d="m357 170c-46.869 0-85-38.131-85-85s38.131-85 85-85 85 38.131 85 85-38.131 85-85 85z"/><path d="m155 170c-46.869 0-85-38.131-85-85s38.131-85 85-85 85 38.131 85 85-38.131 85-85 85z"/><path d="m426.56 176.512c-19.329 14.728-43.439 23.488-69.56 23.488s-50.231-8.76-69.56-23.488c-50.63 25.534-85.44 78.019-85.44 138.488v82c0 8.284 6.716 15 15 15h10c0-71.683 58.317-130 130-130s130 58.317 130 130h10c8.284 0 15-6.716 15-15v-82c0-60.469-34.81-112.954-85.44-138.488z"/><path d="m85.441 176.513c-50.63 25.534-85.441 78.018-85.441 138.487v82c0 8.284 6.716 15 15 15h157v-95.4c0-53.435 22.977-102.208 59.529-136.483-2.262-1.289-4.562-2.501-6.882-3.671-19.344 14.768-43.487 23.554-69.647 23.554-26.121 0-50.23-8.76-69.559-23.487z"/></svg>