<svg id="Capa_1" enable-background="new 0 0 512 512" height="512" viewBox="0 0 512 512" width="512" xmlns="http://www.w3.org/2000/svg"><g><path d="m226 232c-63.963 0-116-52.037-116-116s52.037-116 116-116 116 52.037 116 116-52.037 116-116 116z"/><g><g><path d="m271 317c0-25.68 7.21-49.707 19.708-70.167-19.515 9.693-41.48 15.167-64.708 15.167-30.128 0-58.152-9.174-81.429-24.874-28.782 11.157-55.186 28.291-77.669 50.774-42.498 42.497-65.902 98.999-65.902 159.099v50.001c0 8.284 6.716 15 15 15h420c8.284 0 15-6.716 15-15v-50.001c0-.901-.025-1.805-.036-2.708-14.072 4.986-29.205 7.709-44.964 7.709-74.439 0-135-60.561-135-135z"/></g><path d="m406 212c-57.897 0-105 47.103-105 105s47.103 105 105 105 105-47.103 105-105-47.103-105-105-105zm30 120h-15v15c0 8.284-6.716 15-15 15s-15-6.716-15-15v-15h-15c-8.284 0-15-6.716-15-15s6.716-15 15-15h15v-15c0-8.284 6.716-15 15-15s15 6.716 15 15v15h15c8.284 0 15 6.716 15 15s-6.716 15-15 15z"/></g></g></svg>