<svg id="Layer_1" enable-background="new 0 0 511.538 511.538" height="512" viewBox="0 0 511.538 511.538" width="512" xmlns="http://www.w3.org/2000/svg"><path d="m362.333 116.769h21.666v21.666c0 11.598 9.402 21 21 21s21-9.402 21-21v-21.666h21.667c11.598 0 21-9.402 21-21s-9.402-21-21-21h-21.667v-21.667c0-11.598-9.402-21-21-21s-21 9.402-21 21v21.667h-21.666c-11.598 0-21 9.402-21 21s9.403 21 21 21z"/><circle cx="191.666" cy="202.436" r="106.667"/><path d="m383.166 458.435c0-56.292-24.081-107.074-63.12-142.165-8.986-8.078-22.534-8.388-31.72-.538-55.712 47.607-137.593 47.619-193.319.003-9.173-7.838-22.733-7.595-31.688.492-38.834 35.076-63.289 85.784-63.319 142.106-.006 11.606 9.394 21.103 21 21.103h341.167c11.564-.001 20.999-9.37 20.999-21.001z"/><path d="m471.525 348.255c-11.623 9.467-25.294 16.512-40.235 20.357-11.435 2.943-18.2 14.704-14.983 26.066 9.954 35.153 8.859 64.731 8.859 63.757 0 11.598 9.402 21 21 21h44.17c11.598 0 21-9.402 21-21 0-65.424 2.046-78.159-6.899-101.671-5.091-13.381-21.811-17.55-32.912-8.509z"/><circle cx="405" cy="266.436" r="64"/></svg>